# xmcd
#
# Track frame offsets: 
#        150
#        13199
#        23681
#        39919
#        52115
#        63742
#        80509
#        94347
#        110654
#        121087
#        132314
#        145992
#        163749
#        182470
#        199317
#        213293
#        228273
#
# Disc length: 3237 seconds
#
# Revision: 0
# Processed by: cddbd v1.5.2PL0 Copyright (c) Steve Scherf et al.
# Submitted via: ExactAudioCopy v1.0b1
#
DISCID=ef0ca311
DTITLE=Adam Harvey and Beccy Cole - The Great Country Song Book - Volu
DTITLE=me II
DYEAR=2017
DGENRE=Country
TTITLE0=If I were a Carpenter
TTITLE1=Anyone who isn't me tonight
TTITLE2=My elusive dreams
TTITLE3=Two story house
TTITLE4=You're the reason our kids are ugly
TTITLE5=Don't fall in love with a dreamer
TTITLE6=Jackson
TTITLE7=If I needed you
TTITLE8=Louisiana woman, Mississippi man
TTITLE9=Just someone I used to know
TTITLE10=Golden ring
TTITLE11=Storms never last
TTITLE12=Islands in the stream
TTITLE13=We've got tonight
TTITLE14=It ain't be babe
TTITLE15=Yesterday's wine
TTITLE16=Country heroes
EXTD=
EXTT0=
EXTT1=
EXTT2=
EXTT3=
EXTT4=
EXTT5=
EXTT6=
EXTT7=
EXTT8=
EXTT9=
EXTT10=
EXTT11=
EXTT12=
EXTT13=
EXTT14=
EXTT15=
EXTT16=
PLAYORDER=
